<svg xmlns="http://www.w3.org/2000/svg" viewBox="0 0 125.398 162.394"><defs><style>.cls-1{isolation:isolate;}.cls-2{mix-blend-mode:multiply;}.cls-3{fill:none;stroke:#4a5557;stroke-linecap:round;stroke-miterlimit:10;stroke-width:0.694px;}</style></defs><title>stomach</title><g class="cls-1"><g id="Layer_2" data-name="Layer 2"><g id="Layer_1-2" data-name="Layer 1" class="cls-2"><path class="cls-3" d="M54.749,1.806c-.152,5.164-.28,10.485,1.559,15.312s6.159,9.092,11.323,9.229c4.1.109,7.779-2.289,11.493-4.037,7.428-3.5,16.2-4.524,23.945-1.8,9.95,3.494,17.11,12.8,20.054,22.923s2.16,20.993.032,31.322c-4.523,21.959-16.533,44.017-37.046,53.065-8.292,3.658-17.442,4.963-26.5,5.321-8.073.32-16.492-.166-23.613-3.983s-12.571-11.73-11.292-19.707c-4.753-1.922-9.723,2.738-11.514,7.542a24.194,24.194,0,0,0,5.718,25.237,24.2,24.2,0,0,0,25.418,4.851c5.472-2.256,10.557-6.655,16.437-5.98,6.821.783,10.823,7.857,13.712,14.086"/><path class="cls-3" d="M67.094,161.524l-6.072-11.242a41.264,41.264,0,0,1-15.195,5.74c-12.7,2.411-27.026.581-36.364-8.351A30.091,30.091,0,0,1,.5,123.233,30.477,30.477,0,0,1,14.161,101.05C25.444,93.806,40.933,94.373,50.9,85.4c12.433-11.187,7.236-28.535,13.661-42.729A30.8,30.8,0,0,1,46.329,27.747,30.8,30.8,0,0,1,44.223,4.278"/><path class="cls-3" d="M44.575,3.406A10.327,10.327,0,0,1,53.438.467a2.118,2.118,0,0,1,1.054.392"/><path class="cls-3" d="M67.7,162.047a11.05,11.05,0,0,0,4.355-1.707,5.388,5.388,0,0,0,2.343-3.911"/><path class="cls-3" d="M45.867,3.915a9,9,0,0,1,7.489-1.992,5.716,5.716,0,0,1-3.1,2.428A5.784,5.784,0,0,1,45.867,3.915Z"/><path class="cls-3" d="M64.093,42.716a16.926,16.926,0,0,0,13.425-1.4"/><path class="cls-3" d="M40.554,121.581c17.847,8.374,40.7,4.535,54.829-9.211"/><path class="cls-3" d="M97.806,109.807l2.024-2.226"/></g></g></g></svg>