<svg xmlns="http://www.w3.org/2000/svg" viewBox="0 0 164.931 107.412"><defs><style>.cls-1{isolation:isolate;}.cls-2{mix-blend-mode:multiply;}.cls-3{fill:#40b393;}.cls-4{fill:none;stroke:#4a5557;stroke-linecap:round;stroke-miterlimit:10;stroke-width:0.694px;}</style></defs><title>liver</title><g class="cls-1"><g id="Layer_2" data-name="Layer 2"><g id="Layer_1-2" data-name="Layer 1" class="cls-2"><path class="cls-3" d="M54.015,76.238c.226-4.145.353-6.483,1.477-9.43a21.382,21.382,0,0,1,3.067-5.453l-3-.032a16.417,16.417,0,0,0-1.13,3.076q-.578,1.769-1.07,3.562a33.467,33.467,0,0,0-3.512-5.735l-2.267.981a13.344,13.344,0,0,1,4.856,13.386,12.707,12.707,0,0,0-1.858-3.435,13.78,13.78,0,0,0-2.732-2.967,21.379,21.379,0,0,0-6.564-3.486c-1.037-.36-2.094-.67-3.1-1.109-4.846-2.118-8.264-6.836-13.3-8.7-5.695-2.11-11.832,2.631-10.252,8.821a11.3,11.3,0,0,0,6.152,7.606c3.525,1.461,7.518.579,11.3.069,4.661-.629,10.354-1.428,14.845.347,5.309,2.1,3.929,11.088,6.188,15.341a13.676,13.676,0,0,0,2.954,3.749q.284-1.419.568-2.84a19.733,19.733,0,0,1-2.272-5.454C53.718,81.963,53.809,80.02,54.015,76.238Z"/><path class="cls-4" d="M41.644,65.983a52.533,52.533,0,0,1,8.707-3.75c2.93-.863,6.021-.666,9.039-.962"/><path class="cls-4" d="M53.915,74.991a2.972,2.972,0,0,0,2.92-.827c1.579-1.543,2.086-4.428,2.993-6.405a40.831,40.831,0,0,1,3.646-6.547"/><path class="cls-4" d="M56.591,89.363a42.9,42.9,0,0,1-6.361,17.7"/><path class="cls-4" d="M56.09,106.892a23.827,23.827,0,0,0,3.139-9.315"/><path class="cls-4" d="M62.983,104.142a19.566,19.566,0,0,1-3.666-6.783"/><path class="cls-4" d="M64.936,102.457a35.993,35.993,0,0,1-3.156-26.2,56.1,56.1,0,0,1,7.231-15.324"/><path class="cls-4" d="M44.7,73.043a24.425,24.425,0,0,1,5.763,8.351"/><path class="cls-4" d="M43.967,65.362,45.8,68.5"/><path class="cls-4" d="M62.418,78.3c2.735-2.138,5.1-4.313,8.687-4.74,5.068-.6,9.071-.8,13.5-3.8A23.057,23.057,0,0,0,93.34,58.716c.074-.2,8.192-1.856,9.13-2.256a31.223,31.223,0,0,0,8.335-5.335c5.328-4.661,10.656-9.507,16.4-13.669a66.329,66.329,0,0,1,29.342-11.893c2.857-.411,6.207-.935,7.546-3.492,1.064-2.032.3-4.642-1.242-6.341a15.581,15.581,0,0,0-5.827-3.549,122.545,122.545,0,0,0-48.5-9.152c-8.957.152-17.9,1.289-26.849.8C68.034,3.094,54.388-1.4,40.959,1.09,23.287,4.364,9.541,19.647,4,36.745s-4.054,35.711-.364,53.3c.756,3.6,1.642,7.282,3.734,10.311s5.666,5.3,9.317,4.835c4.548-.583,7.5-4.88,10.443-8.394A45.514,45.514,0,0,1,46.166,83.4a14.871,14.871,0,0,1,2.46-.689"/><path class="cls-4" d="M61.323,61.136c6.416-.687,13.607-1.261,19.1-4.988,6.552-4.442,8.248-14.351,8.13-21.7"/><path class="cls-4" d="M4.823,93.512A72.351,72.351,0,0,1,22.7,74.381"/><path class="cls-4" d="M88.11,47.156a16.854,16.854,0,0,0,.637,6.731A7.066,7.066,0,0,0,93.381,58.5"/><path class="cls-4" d="M32.008,49.017a15.085,15.085,0,0,1,9.051-4.75"/><path class="cls-4" d="M45.75,42.032a35.567,35.567,0,0,1,9.2-2.264"/><path class="cls-4" d="M58.836,38.812l12.8-1.915c5.481-.82,11.694-2.116,14.472-6.911,2.531-4.369,1.377-10.5,4.863-14.153,2.2,3.563-1.892,7.98-1.391,12.137.384,3.184,3.527,5.475,6.7,5.913s6.362-.561,9.377-1.652c10.119-3.66,19.949-8.538,30.607-10.019"/><path class="cls-4" d="M137.941,22a4.274,4.274,0,0,1,1.916-.27"/></g></g></g></svg>