<svg xmlns="http://www.w3.org/2000/svg" viewBox="0 0 237.764 145.441"><defs><style>.cls-1{isolation:isolate;}.cls-2{mix-blend-mode:multiply;}.cls-3,.cls-5{fill:none;stroke:#4a5557;stroke-linecap:round;stroke-miterlimit:10;stroke-width:0.694px;}.cls-3{stroke-dasharray:3;}.cls-4{fill:#f9bfbb;}</style></defs><title>appendix</title><g class="cls-1"><g id="Layer_2" data-name="Layer 2"><g id="Layer_1-2" data-name="Layer 1" class="cls-2"><path class="cls-3" d="M26.446,87.205c-9.258-.178-16.763,8.569-15.793,17.581a15.862,15.862,0,0,0,15.2,14.006c8.755.124,16.109-7.606,15.793-16.39A15.892,15.892,0,0,0,26.446,87.205Z"/><path class="cls-3" d="M26.356,87.321l81.66-57.659"/><path class="cls-3" d="M31.484,117.9l90.293,13.03"/><path class="cls-4" d="M77.213,34.725a4.678,4.678,0,0,0-.155-5.116,4.262,4.262,0,0,0-4.725-1.729,4.12,4.12,0,0,0-2.641,4.169,3.61,3.61,0,0,0-5.865,3.76,3.2,3.2,0,0,0-5.1,3.669,2.942,2.942,0,0,0-3.669-.815,2.9,2.9,0,0,0-1.426,2.853,3.094,3.094,0,0,0-5.5,2.242,4.592,4.592,0,0,0-3.668-.611A4.733,4.733,0,0,0,41.406,46.2a3,3,0,0,0-2.649-2.446A3.053,3.053,0,0,0,35.7,46.816a4.669,4.669,0,0,0-3.668-2.038,4.6,4.6,0,0,0-3.465,1.63,4.24,4.24,0,0,0-3.058-2.446,4.011,4.011,0,0,0-3.872,1.631,3.545,3.545,0,0,0-6.93-.815,4.444,4.444,0,0,0-3.669-3.465c-2.343-.21-4.236,2.1-4.484,4.28A5.141,5.141,0,0,0,8.8,50.281a3.384,3.384,0,0,0-3.057,5.5,4.715,4.715,0,0,0-4.28,3.057A4.778,4.778,0,0,0,3.9,64.548,4.73,4.73,0,0,0,.235,68.421,4.764,4.764,0,0,0,3.5,73.516a3.587,3.587,0,1,0,.611,7.134,3.751,3.751,0,0,0,2.039,7.133,4.753,4.753,0,0,0,3.261,8.561,5.989,5.989,0,0,0,1.834,6.726,6.206,6.206,0,0,0,5.5.815,4.545,4.545,0,0,0,7.949,4.077,5.935,5.935,0,0,0,4.077,2.649c2.918.29,6.269-2.15,6.114-5.3a5.5,5.5,0,0,0-5.095-4.892,4.225,4.225,0,0,0-6.319-4.688,3.444,3.444,0,0,0,0-4.484,3.363,3.363,0,0,0-3.465-.815,4.163,4.163,0,0,0,.408-3.872,4.1,4.1,0,0,0-2.854-2.242,3.357,3.357,0,0,0-.815-6.115,3.464,3.464,0,0,0,1.835-3.057,3.5,3.5,0,0,0-2.65-3.261,4.228,4.228,0,0,0-1.223-7.746,3.025,3.025,0,0,0,2.853-4.076,2.945,2.945,0,0,0,4.587-1.375,3.4,3.4,0,0,0,1.962,2.243,3.488,3.488,0,0,0,4.066-2.243,4.032,4.032,0,0,0,7.99-.281,3.555,3.555,0,0,0,6.308-.42,4.435,4.435,0,0,0,4.065.841,4.183,4.183,0,0,0,2.8-3.5,4.315,4.315,0,0,0,7.43-2.243,2.74,2.74,0,0,0,4.2-2.8,4.9,4.9,0,0,0,3.365.421,5.183,5.183,0,0,0,3.644-4.206l1.823.981a3.769,3.769,0,0,0,.841,4.767,4.106,4.106,0,0,0-2.1,2.383,4.285,4.285,0,0,0,1.822,4.626,5.805,5.805,0,0,0-1.822,3.5,6.024,6.024,0,0,0,1.682,4.766,6.2,6.2,0,0,0-1.822,3.365,6.422,6.422,0,0,0,1.261,4.906,4.66,4.66,0,0,0-1.121,7.57,4.61,4.61,0,0,0-2.8,2.1,4.775,4.775,0,0,0,.7,5.327,2.941,2.941,0,0,0-2.663.42,2.853,2.853,0,0,0-.421,3.645,4.024,4.024,0,0,0-5.607,3.925,6.711,6.711,0,0,0-5.467.42,6.828,6.828,0,0,0-2.8,7.57,6.8,6.8,0,0,0-.841,4.346,7.048,7.048,0,0,0,3.224,4.766,5.979,5.979,0,0,0-.7,5.187c1.211,2.956,5.334,4.24,7.43,2.8,1.985-1.36,2.562-5.441-.14-8.691a8.372,8.372,0,0,0,2.663-7.57,5.183,5.183,0,0,0,5.047,2.664,5.347,5.347,0,0,0,4.2-6.028,5.791,5.791,0,0,0,5.888-.7,5.986,5.986,0,0,0,.981-7.71,6.428,6.428,0,0,0,4.626-3.505,6.123,6.123,0,0,0-.841-6.308,6.971,6.971,0,0,0,3.5-4.626,7.126,7.126,0,0,0-1.963-6.168,5.614,5.614,0,0,0,2.8-4.2A5.36,5.36,0,0,0,82.7,65.978a4.467,4.467,0,0,0,1.542-3.5,4.321,4.321,0,0,0-2.523-3.645,4.785,4.785,0,0,0-.561-8.691,4.108,4.108,0,0,0,1.963-3.224,3.9,3.9,0,0,0-2.383-3.645A5.2,5.2,0,0,0,82.7,39.2C82.523,36.883,80.229,34.786,77.213,34.725Z"/><path class="cls-5" d="M69.658,47.633a3.841,3.841,0,0,0,4.629-2.643,3.36,3.36,0,0,0,3.721-.065"/><path class="cls-5" d="M17.519,59.884a3.068,3.068,0,0,1-.928-.655,3.166,3.166,0,0,1-.819-1.583,3.674,3.674,0,0,1-3.118.538,3.729,3.729,0,0,1-2.36-2.459"/><path class="cls-5" d="M57.861,98.7a4.065,4.065,0,0,1,1.711,3.655c1.224-1.256,2.6-2.407,4.332-2.129"/><path class="cls-3" d="M166.316.355C123.893-.306,89.167,38.012,93.09,79.695c3.42,36.348,35.368,66.112,73.359,65.386,38.831-.742,71.077-33.091,70.967-72.562C237.306,32.742,204.379.948,166.316.355Z"/><path class="cls-5" d="M181.229,32.464a21.027,21.027,0,0,1,2.757,18.851,22.461,22.461,0,0,1,16.106,16.856C202.5,79.513,194.73,87.752,194.1,88.4"/><path class="cls-5" d="M146.528,3.37a18.518,18.518,0,0,1,9.365,7.116,18.931,18.931,0,0,1,2.622,14.234c.471-.136,11.8-3.2,20.227,4.87a20.282,20.282,0,0,1,1.692,1.833"/><path class="cls-5" d="M154.755,107.01a24.467,24.467,0,0,1-10.849-14.492,22.558,22.558,0,0,1-22.474-34.461c-.759.182-8.921,1.986-15.358-3.745a17.442,17.442,0,0,1-5.618-12.361"/><path class="cls-5" d="M189.6,94.391A24.15,24.15,0,0,1,167.13,110.5a23.434,23.434,0,0,1-9.52-2"/><path class="cls-5" d="M199.839,98.527a5.217,5.217,0,0,1,.172,2.326c-.27,2.6-.961,5.156-1.1,7.769-.1,1.944.041,5.282,1.665,6.691a2.364,2.364,0,0,0,3.47-.444c.97-1.244.028-2.55-.236-3.917-.364-1.891.5-3.769.946-5.642,1.282-5.406-1.186-10.3-5.392-13.622-4.143-3.278-9.145-5.1-14.148-6.611-5.475-1.651-9.3-3.955-13.981-7.293a156.7,156.7,0,0,1-26.261-22.968c-10.01-11.225-17.929-24.577-21.315-39.231"/><path class="cls-5" d="M117.607,22.477a118.832,118.832,0,0,0,24.178,40.3,118.23,118.23,0,0,0,30.17,23.671c8.281,4.56,17.1,7.282,25.908,10.49a3.991,3.991,0,0,1,1.432.756"/><path class="cls-5" d="M150.966,93.519a17.555,17.555,0,0,0,27.286,8.328"/><path class="cls-5" d="M179.762,100.509l.772-.924"/><path class="cls-5" d="M155.746,28.633c9.623-5.4,24.034,2.184,25.193,12.9"/><path class="cls-5" d="M181.252,44.329V45.5"/></g></g></g></svg>