<svg xmlns="http://www.w3.org/2000/svg" viewBox="0 0 126.603 146.868"><defs><style>.cls-1{isolation:isolate;}.cls-2{mix-blend-mode:multiply;}.cls-3{fill:none;stroke:#4a5557;stroke-linecap:round;stroke-miterlimit:10;stroke-width:0.694px;}.cls-4{fill:#f9bfbb;}</style></defs><title>intestines</title><g class="cls-1"><g id="Layer_2" data-name="Layer 2"><g id="Layer_1-2" data-name="Layer 1" class="cls-2"><path class="cls-3" d="M29.012,62.524c-2.406.827-3.652,3.646-3.49,6.186s1.407,4.866,2.631,7.1,2.482,4.548,2.671,7.086c.116,1.57-.729,3.606-2.292,3.422-3.741-.44-.913-5.782.322-7.2"/><path class="cls-3" d="M23.565,72.426a16.5,16.5,0,0,0-5.956,12.339,13.135,13.135,0,0,0,3.008,8.844,9.458,9.458,0,0,0,8.551,3.222,6.382,6.382,0,0,0,4.277-2.13,13.961,13.961,0,0,0,3.328-7.574"/><path class="cls-3" d="M18.556,60.812a10.739,10.739,0,0,0,1.6,13.986"/><path class="cls-3" d="M37.038,82.537A12.828,12.828,0,0,0,38.8,74.929c-.113-.964-1.513-7.078-3.329-5.251a1,1,0,0,0-.187.98c.342,1.165,1.534,2.232,2.155,3.27a6.948,6.948,0,0,1,.929,4.34A26.02,26.02,0,0,1,37.1,82.592a5.793,5.793,0,0,0,.1,4.394c.848,1.558,2.677,2.241,4.328,2.891.575.226,1.252.632,1.179,1.246-.075.631-.94.859-1.525.611a8.781,8.781,0,0,1-1.518-1.144,3.287,3.287,0,0,0-3.853.11"/><path class="cls-3" d="M30.065,61.761c4.448-1.347,9.488-1.2,13.506,1.139s6.733,7.079,5.99,11.667c-.365,2.252-1.484,4.305-2.157,6.485s-.828,4.75.563,6.559c1.318,1.715,3.883,2.586,4.283,4.712.374,1.989-1.5,3.723-3.4,4.413-2.067.749-3.526-.315-5.692.065a5.216,5.216,0,0,0-3.638,2.63c-.34.633-.473,1.563.131,1.954a1.206,1.206,0,0,0,1.495-.371c.587-.7.631-1.67,1.139-2.418a4.618,4.618,0,0,1,2.249-1.7"/><path class="cls-3" d="M30.912,96.484c-.953,4.2,1.789,8.472,5.319,10.934a13.885,13.885,0,0,0,7,2.623,9.249,9.249,0,0,0,6.959-2.388c2.075-2.008,3.081-5.182,5.694-6.411A11.623,11.623,0,0,0,54.6,108.89a7.221,7.221,0,0,0,5.043,5.556"/><path class="cls-3" d="M52.081,92.9c2.023-2.032,4.411-3.947,7.254-4.319s6.124,1.405,6.443,4.255c.308,2.757-2.1,5.183-2.133,7.957-.012.9.387,1.954,1.267,2.143,1.007.215,1.838-.845,2.1-1.841.737-2.8-.762-5.839.005-8.634a6.506,6.506,0,0,1,5.557-4.452"/><path class="cls-3" d="M60.385,114.974A12.878,12.878,0,0,0,74.893,96.738c-.262-.532-.73-1.127-1.309-1-.317,1.327.506,2.655,1.444,3.644a13.076,13.076,0,0,0,20.535-2"/><path class="cls-3" d="M90.936,76.173a7.047,7.047,0,0,0,3.342,7.163c-1.863,3.814-2.628,9.12-.086,12.821,1.705,2.483,5.2,3.3,8.021,2.434,5.93-1.822,7.493-12.764,7.236-17.957a26.443,26.443,0,0,0-6.321-15.812"/><path class="cls-3" d="M87.066,92.439c.687-2.472-.011-5.114-.976-7.491s-2.209-4.676-2.67-7.2a10.255,10.255,0,0,1,1.6-7.816A7.784,7.784,0,0,1,92.128,66.7c5.483.741,9.321,6.624,10.2,11.661a10.19,10.19,0,0,1-2.073,8.492,3.077,3.077,0,0,0-.711.993.844.844,0,0,0,.364,1.054c.486.2.969-.284,1.241-.733a8.954,8.954,0,0,0,1.2-3.386"/><path class="cls-3" d="M73.3,87.972a9.445,9.445,0,0,1,6.87,1.29c.959.613,1.8,1.4,2.746,2.025a10.241,10.241,0,0,0,3.753,1.523"/><path class="cls-3" d="M59.047,88.713a8.286,8.286,0,0,1-2.23-5.29A8.875,8.875,0,0,1,58.2,78.2c-2.5-2.8-3.944-6.295-3.054-10.095a10.678,10.678,0,0,1,7.266-7.661"/><path class="cls-3" d="M63.479,60.293c3.749-.8,8.456-.735,11.467,1.956,2.577,2.3,4.308,6.325,3.475,9.78-.562,2.329-2.009,4.327-3.14,6.44a3.232,3.232,0,0,0-.513,1.7,1.214,1.214,0,0,0,1.108,1.187c.677-.022,1.078-.756,1.277-1.4a10.72,10.72,0,0,0,.321-4.912"/><path class="cls-3" d="M68.517,88.826a7.322,7.322,0,0,1-2.377-4.469,11.012,11.012,0,0,1,.53-5.1c.661-2,1.621-3.872,1.582-6.014a7.983,7.983,0,0,0-1.57-4.777,2.3,2.3,0,0,0-1.2-.9,1.029,1.029,0,0,0-1.237.613c-.158.587.382,1.11.865,1.479l2.225,1.7"/><path class="cls-3" d="M77.547,43.829a9.361,9.361,0,0,0-1.139,5.782,14.488,14.488,0,0,0,4.187,9.7c5.333,4.929,15.8,3.262,17.382-4.68A15.934,15.934,0,0,0,94.8,41.45"/><path class="cls-3" d="M97.007,62.823a5.459,5.459,0,0,0,3.542,1.856,5.682,5.682,0,0,0,7.068-4.781,9.293,9.293,0,0,0-.8-5.784,4.167,4.167,0,0,0-2.28-2.272,4.359,4.359,0,0,0-3.451.726C98.1,54.368,94.287,59.305,97.007,62.823Z"/><path class="cls-3" d="M104.743,35.324a12.331,12.331,0,0,1,3.77,10.633,7.394,7.394,0,0,1-1.754,4.015,5.286,5.286,0,0,1-8.61-1.318c-1.049-2.167-.52-4.776-1.2-7.087-.224-.767-.644-.786-1.195-1.365"/><path class="cls-3" d="M58.048,42.165c-.721,2.868-1.944,5.611-2.389,8.534-.719,4.726,1.881,10.839,7.75,9.271,3.932-1.049,5.74-7.535,5.8-10.975.009-.485.07-1.356-.526-1.529a.849.849,0,0,0-.626.086c-1.705.892-.381,5.413-.019,6.786.68,2.58,1.838,5.146,4.678,5.8a4.666,4.666,0,0,0,5.307-2.554"/><path class="cls-3" d="M76.625,63.622a4.379,4.379,0,0,1,2.684-4.95"/><path class="cls-3" d="M84.781,41.413l3.756,6.016a3.721,3.721,0,0,1,.685,1.637,1.275,1.275,0,0,1-.889,1.375,1.235,1.235,0,0,1-1.218-.659,3.059,3.059,0,0,1-.317-1.426,13.106,13.106,0,0,1,.176-2.7"/><path class="cls-3" d="M48.852,77.042a19.339,19.339,0,0,0-.865,5.787,8.071,8.071,0,0,0,1.671,5.452,5.028,5.028,0,0,0,8.348-1.388"/><path class="cls-3" d="M54.332,53.107c-2.857,1.884-6.192,3.772-9.515,2.951a14.133,14.133,0,0,1-5.083-3.042c-2.321-1.83-4.861-3.57-7.777-4.055s-6.287.62-7.607,3.265c-.234.47-.36,1.127.055,1.45.481.374,1.163-.07,1.567-.527a10.743,10.743,0,0,0,1.7-2.609"/><path class="cls-3" d="M27.764,62.427A11.441,11.441,0,0,1,20.9,40.654"/><path class="cls-3" d="M22.2,40.158a16.179,16.179,0,0,1,6.557-1.105"/><path class="cls-3" d="M36.877,40.815c3.35.636,5.7,3.565,8.6,5.368a3.673,3.673,0,0,0,1.24.529c.781.146,1.272-.3.692-.983a3.325,3.325,0,0,0-2.089-.949,9.881,9.881,0,0,1-2.422-.465"/><path class="cls-3" d="M52.45,54.371a5.4,5.4,0,0,1,4.614,3.149,8.145,8.145,0,0,1,.284,5.749"/><path class="cls-4" d="M121.064,66.018c.222-.119,5.335-2.988,5.534-8.813a10.483,10.483,0,0,0-5.739-9.633,9.442,9.442,0,0,0-.886-17.007,6.366,6.366,0,0,0,1.856-1.638c2.186-2.89,1.061-6.813.554-8.2A5.1,5.1,0,0,0,122.1,19.1a5.439,5.439,0,0,0-2.179-2.673,9.845,9.845,0,0,0,3.6-5.136c.176-.619,1.331-4.973-1.639-8.4C118.836-.627,114.2.012,113.615.1A8.414,8.414,0,0,0,107.5,3.9a8.175,8.175,0,0,0-.754,6.119c-.215-.114-4.024-2.062-7.609.045a7.922,7.922,0,0,0-3.546,8.543,8.424,8.424,0,0,0-14.272,4.931,9.257,9.257,0,0,0-8.431-4.11,9.761,9.761,0,0,0-7.451,5,8.946,8.946,0,0,0-6.492-4.9,8.523,8.523,0,0,0-8.3,3.938,8.314,8.314,0,0,0-14.9-2.023c-.068-.217-1.642-4.941-6.492-6.066a8.978,8.978,0,0,0-8.941,3.086,9.776,9.776,0,0,0-8.929-6.981c-5.263-.054-8.769,4.691-9.369,8.5a8.236,8.236,0,0,0,.826,5.222,9.472,9.472,0,0,0,.586.937A8.431,8.431,0,0,0,5.078,40.667a7.037,7.037,0,0,0-1.758,4.3c-.143,4.017,3.555,6.349,3.71,6.443a7.065,7.065,0,0,0-.781,4.686,7.485,7.485,0,0,0,4.1,5.077,10.034,10.034,0,0,0-6.443,5.467A9.829,9.829,0,0,0,6.054,77.18,7.106,7.106,0,0,0,8.983,90.457a8.445,8.445,0,0,0,6.053,8.982A8.159,8.159,0,0,0,22.8,96.845a14.937,14.937,0,0,1-6.169-8.6,15.34,15.34,0,0,1,2.6-12.5,12.358,12.358,0,0,1-3.734-7.954,12.072,12.072,0,0,1,1.461-6.494A12.866,12.866,0,0,1,12.9,55.285a14.063,14.063,0,0,1,0-7.63c1.634-5.149,7.252-8.955,14.124-9.578q-.631-1.242-1.262-2.486a10.4,10.4,0,0,1-2.328,1.368,7.939,7.939,0,0,1-5.186.7,6.325,6.325,0,0,1-3.956-2.725,5.632,5.632,0,0,1-.732-2.052l1.73-.833a5.193,5.193,0,0,0,2.867,3.192,5.507,5.507,0,0,0,7.221-3.777l1.444.223a8.676,8.676,0,0,0,3.554,6.553,7.7,7.7,0,0,0,6.554,1.111,7.613,7.613,0,0,0,4.443-4l1.445.445a6.363,6.363,0,0,0,1.666,4.221,6.659,6.659,0,0,0,8.484.487,5.984,5.984,0,0,0,1.846-2.487l1.219.174a7.045,7.045,0,0,0,12.528.99h1.5a10,10,0,0,0,4.793,3.275,7.263,7.263,0,0,0,5.627-.095,6.8,6.8,0,0,0,3.243-4.006l1.43-.667a9.411,9.411,0,0,0,5.246,2.575A6.7,6.7,0,0,0,94.4,39.79c2.2-1.13,3.432-3.886,3.338-6.962l1.812-.763a6.4,6.4,0,0,0,2.658,1.813,6.532,6.532,0,0,0,4.869-.27c2.529-1.19,4.088-4.213,3.861-7.574l1.674-1.187a9.041,9.041,0,0,1-1.287,7.7,8.559,8.559,0,0,1-4.816,3.08c.187.178.448.435.735.767a12.053,12.053,0,0,1,2.9,7.243,9.76,9.76,0,0,1-1.811,6.639,8.257,8.257,0,0,1-1.811,1.69,9.758,9.758,0,0,1,2.294,4.467,7.965,7.965,0,0,1-.483,5.432,7.623,7.623,0,0,1-3.5,3.38,26.227,26.227,0,0,1,3.89,6.567A27.393,27.393,0,0,1,110.6,83.867a21.957,21.957,0,0,1-2.448,10.357c-1.151,2.083-2.465,4.461-5.273,5.461a9.241,9.241,0,0,1-7.156-.753,13.744,13.744,0,0,1-6.4,4.9,14.332,14.332,0,0,1-5.272.754,15.345,15.345,0,0,1-6.95-1.992,12.589,12.589,0,0,1-1.149,6A13.087,13.087,0,0,1,70.2,114.47a15.384,15.384,0,0,1-9.854,1.643,4.41,4.41,0,0,0-.227,1.736,4.663,4.663,0,0,0,1.349,2.879,6.135,6.135,0,0,0,.735,11.938,7.964,7.964,0,0,0-1.923,9.766,8.916,8.916,0,0,0,9.168,4.315,10.142,10.142,0,0,0,7.68-6.852c1.265-3.944-.237-8.833-3.915-10.738a6.631,6.631,0,0,0,8.982-7.9l.584-.227a5.8,5.8,0,0,0,10.173-5.06,7.3,7.3,0,0,0,12.1-7.271A8.285,8.285,0,0,0,114.3,95.737a8.248,8.248,0,0,0,4.509-14.962,7.911,7.911,0,0,0,2.255-14.757Z"/><path class="cls-3" d="M39.538,26.371a2.935,2.935,0,0,1,2.209,1.972,5.939,5.939,0,0,1,.114,3.074,4.986,4.986,0,0,1,4.031-3.9"/><path class="cls-3" d="M54.068,29.31a4.085,4.085,0,0,1,2.111,4.208,4.141,4.141,0,0,1,3.312-3.884"/><path class="cls-3" d="M66.945,30.276a3.705,3.705,0,0,1,2.194,3.767A4.065,4.065,0,0,1,71.7,30.3"/><path class="cls-3" d="M81.254,29.641a3.364,3.364,0,0,1,2.7,2.571,4.892,4.892,0,0,1,1.549-4.2"/><path class="cls-3" d="M93.86,24.271a3.925,3.925,0,0,1,2.946,1.414,4.11,4.11,0,0,1,.649-3.172"/><path class="cls-3" d="M105.239,18.514a4.294,4.294,0,0,1,2.887,1.282l.063-3.655"/><path class="cls-3" d="M27.163,23.86a3.114,3.114,0,0,1,1.212,3.747,6.4,6.4,0,0,1,1.163-1.643,2.53,2.53,0,0,1,1.816-.752"/><path class="cls-3" d="M13.958,18.59a4.164,4.164,0,0,1,1.332,4.157,3.47,3.47,0,0,1,3.534-2"/><path class="cls-3" d="M77.042,114.02a10.585,10.585,0,0,1,3.245,2.2,7.876,7.876,0,0,1,1.407-3.463"/><path class="cls-3" d="M87.816,109.044a4.8,4.8,0,0,1,3.031,1.8,10.074,10.074,0,0,1,1.267-3.622"/><path class="cls-3" d="M99.848,103.8a4.413,4.413,0,0,1,2.446.987l.522-2.615"/><path class="cls-3" d="M113.259,77.674a4.652,4.652,0,0,0,1.969,2.863,6.693,6.693,0,0,0-2.75,2.06"/><path class="cls-3" d="M110.305,93.618a2.427,2.427,0,0,0,.876,1.8,6.578,6.578,0,0,0-2.479.99"/><path class="cls-3" d="M114.137,62.426a4.5,4.5,0,0,0,1.078,3.627,5.173,5.173,0,0,0-1.977,1.8"/><path class="cls-3" d="M113.6,46.966a5.756,5.756,0,0,0,2.328,1.877,4.929,4.929,0,0,0-2.2,2.774"/><path class="cls-3" d="M112.648,34.547a4.239,4.239,0,0,1,3.619-2.257"/><path class="cls-3" d="M10.142,77a4.711,4.711,0,0,1,3.134,2.008"/><path class="cls-3" d="M13.491,61.994a5.5,5.5,0,0,1-1.959,1.819,3.345,3.345,0,0,1,1.941,2.01"/><path class="cls-3" d="M14.274,84.258a9.416,9.416,0,0,1-.955,2.278,3.257,3.257,0,0,1,1.749.03"/><path class="cls-3" d="M10.973,37.452a5.93,5.93,0,0,1-1.5,2.455,2.813,2.813,0,0,1,2.18.561"/><path class="cls-3" d="M10.615,51.34a2.508,2.508,0,0,0,1.6-1.388"/><path class="cls-3" d="M14.986,33.793a6.117,6.117,0,0,0,4.588,3.177c2.834.315,5.171-1.525,6.343-3.972a15.175,15.175,0,0,0,1.469,3.525A8.785,8.785,0,0,0,39.179,39.57a7.622,7.622,0,0,0,2.484-2.54A5.971,5.971,0,0,0,44.5,41.639c2.834,1.694,9.338,1.621,10.682-2.005A8.97,8.97,0,0,0,62.078,43.7a8.573,8.573,0,0,0,7.225-3.55c2.3,2.171,5.186,3.942,8.345,4.032s6.506-1.938,7.106-5.04a14.488,14.488,0,0,0,5.917,2.219,7.328,7.328,0,0,0,5.885-1.843c1.557-1.547,2.1-3.814,2.575-5.956a7.679,7.679,0,0,0,12.651-6.47"/></g></g></g></svg>