<svg xmlns="http://www.w3.org/2000/svg" viewBox="0 0 149.63 205.621"><defs><style>.cls-1{isolation:isolate;}.cls-2{mix-blend-mode:multiply;}.cls-3{fill:#f9bfbb;}.cls-4,.cls-5{fill:none;stroke:#4a5557;stroke-linecap:round;stroke-miterlimit:10;stroke-width:0.694px;}.cls-4{stroke-dasharray:3;}</style></defs><title>oesophaqus</title><g class="cls-1"><g id="Layer_2" data-name="Layer 2"><g id="Layer_1-2" data-name="Layer 1" class="cls-2"><path class="cls-3" d="M57.083,193.175c.263-.727,2.829-7.518,8.973-9.857,2.688-1.023,3.988-.405,6.683-1.864a14.19,14.19,0,0,0,5.473-5.59c-.631-1.415-1.362-2.9-2.213-4.425a55.991,55.991,0,0,0-5.847-8.534c-.091-2.4-.229-5.986-.406-10.328-.706-17.359-1.237-33.541-2.182-45.937Q65.814,83.708,62.751,60.9a83.872,83.872,0,0,0-22.015-.487q-.029,3.852-.058,7.7,7.521.478,15.061.543a131.864,131.864,0,0,1,.07,15.742A212.487,212.487,0,0,0,20.6,96.865c-4.019,1.821-8.135,3.878-10.823,7.377-3.342,4.352-3.911,10.158-4.356,15.627-1.643,20.2-3.15,40.417-5.424,60.516L23.591,182.4q.465-19.332,1.733-38.633,1.744,27.138.885,54.359l8.669.386,21.294-1.421A17.005,17.005,0,0,1,57.083,193.175Z"/><path class="cls-3" d="M62.161,196.692l9.852-.657a86.3,86.3,0,0,0-9.042-5.947C62.64,192.136,62.362,194.346,62.161,196.692Z"/><path class="cls-3" d="M146.922,128.207c-.135-7.585-.461-14.78-5.036-21.97-4.608-7.243-12.721-10.918-20.652-13.313-9.094-2.746-18.037-5.273-27.028-8.463a52.735,52.735,0,0,1-4.659-25.319c.288-.318.722-.807,1.229-1.42,1.659-2.006,12.923-16.116,10.061-34.329-.9-5.709-2.8-11.447-6.683-15.731C89.954,3.025,83.727.506,77.484.078,66.112-.7,55.1,4.353,48.948,14.074a30.229,30.229,0,0,0-4.612,16.012q-1.722,2.133-3.53,4.294-3.07,3.667-6.113,7.078l6.156,4.107q-.033,4.454-.068,8.908a119.337,119.337,0,0,1,28.891.144c2.26,13.732,3.678,25.456,4.6,34.609.979,9.725,1.458,17.148,1.62,19.741.4,6.358.668,12.827.844,20.06.166,6.764.24,13.53.289,20.3.007,1.063.251,16.2,1.092,16.283a14.541,14.541,0,0,1,3.265.722,12.793,12.793,0,0,1,9.359-7.463c4.083-.709,8.333,1.344,10.941,4.565a19.7,19.7,0,0,1,3.922,11.578,31.049,31.049,0,0,1-5.955,19.184l21.045-1.4q-.115-17.25-.232-34.5c-.039-5.774-.06-11.666,1.729-17.156a276.176,276.176,0,0,1,4.574,38.253c2.261.64,22.844-2.464,22.865-2.218C147.754,156,147.127,139.723,146.922,128.207Z"/><path class="cls-4" d="M57.075,204.678a28.354,28.354,0,0,1,.483-11.4,14.429,14.429,0,0,1,6.75-8.909c3.542-1.869,8.03-1.871,11.054-4.5,3.226-2.8,3.663-7.539,5.168-11.536,1.379-3.661,3.98-7.033,7.613-8.482,4.623-1.843,10.209-.118,13.6,3.529s4.731,8.875,4.37,13.839a34.068,34.068,0,0,1-4.721,14.035c-2.414,4.286-5.638,8.489-10.27,10.144-5.981,2.137-12.686-.577-17.674-4.508-3.29-2.593-6.353-5.828-10.427-6.8a54.035,54.035,0,0,0-.8,15.182"/><path class="cls-4" d="M71.3,69.6,70.028,54.584a105.24,105.24,0,0,0-28.98.352"/><path class="cls-4" d="M64.614,71.162q-.621-4.851-1.588-9.648a.695.695,0,0,0-.769-.717l-7.494-.639c-4.59-.391-9.3-.772-13.735.468"/><path class="cls-5" d="M64.839,71.008c1.287,11.589,2.144,21.507,2.726,29.2,1.11,14.689,1.571,26.006,1.947,35.433.429,10.785.654,19.946.779,26.867q4.023,6.408,8.047,12.817"/><path class="cls-5" d="M81.533,166.381l-3.355-.8c-.256-4.479-.622-11.373-.959-19.814-.673-16.865-.362-18.25-.959-30.36-.917-18.615-2.336-29.238-2.876-33.076-.743-5.28-1.5-9.672-2.077-12.783"/></g></g></g></svg>